ffmpeg version 4.2.7-0ubuntu0.1 Copyright (c) 2000-2022 the FFmpeg developers
  built with gcc 9 (Ubuntu 9.4.0-1ubuntu1~20.04.1)
  configuration: --prefix=/usr --extra-version=0ubuntu0.1 --toolchain=hardened --libdir=/usr/lib/x86_64-linux-gnu --incdir=/usr/include/x86_64-linux-gnu --arch=amd64 --enable-gpl --disable-stripping --enable-avresample --disable-filter=resample --enable-avisynth --enable-gnutls --enable-ladspa --enable-libaom --enable-libass --enable-libbluray --enable-libbs2b --enable-libcaca --enable-libcdio --enable-libcodec2 --enable-libflite --enable-libfontconfig --enable-libfreetype --enable-libfribidi --enable-libgme --enable-libgsm --enable-libjack --enable-libmp3lame --enable-libmysofa --enable-libopenjpeg --enable-libopenmpt --enable-libopus --enable-libpulse --enable-librsvg --enable-librubberband --enable-libshine --enable-libsnappy --enable-libsoxr --enable-libspeex --enable-libssh --enable-libtheora --enable-libtwolame --enable-libvidstab --enable-libvorbis --enable-libvpx --enable-libwavpack --enable-libwebp --enable-libx265 --enable-libxml2 --enable-libxvid --enable-libzmq --enable-libzvbi --enable-lv2 --enable-omx --enable-openal --enable-opencl --enable-opengl --enable-sdl2 --enable-libdc1394 --enable-libdrm --enable-libiec61883 --enable-nvenc --enable-chromaprint --enable-frei0r --enable-libx264 --enable-shared
  libavutil      56. 31.100 / 56. 31.100
  libavcodec     58. 54.100 / 58. 54.100
  libavformat    58. 29.100 / 58. 29.100
  libavdevice    58.  8.100 / 58.  8.100
  libavfilter     7. 57.100 /  7. 57.100
  libavresample   4.  0.  0 /  4.  0.  0
  libswscale      5.  5.100 /  5.  5.100
  libswresample   3.  5.100 /  3.  5.100
  libpostproc    55.  5.100 / 55.  5.100
Routing option strict to both codec and muxer layer
[mov,mp4,m4a,3gp,3g2,mj2 @ 0x555f8ed72c80] stream 0, timescale not set
[h264 @ 0x555f8ed747c0] Reinit context to 3840x2160, pix_fmt: yuvj420p
Input #0, mov,mp4,m4a,3gp,3g2,mj2, from '/var/www/html/project/media/video/original/temp_video_for_share.mov':
  Metadata:
    major_brand     : qt  
    minor_version   : 0
    compatible_brands: qt  
    creation_time   : 2025-09-30T21:55:05.000000Z
    encoder         : DJI Mini4 Pro
  Duration: 00:00:24.29, start: 0.000000, bitrate: 25890 kb/s
    Stream #0:0(und): Video: h264 (High), 1 reference frame (avc1 / 0x31637661), yuvj420p(pc, bt709, left), 3840x2160, 25261 kb/s, 29.97 fps, 29.97 tbr, 30k tbn, 60k tbc (default)
    Metadata:
      creation_time   : 2025-09-30T21:55:05.000000Z
      handler_name    : Core Media Video
      encoder         : H.264
    Stream #0:1: Video: mjpeg (Baseline), 1 reference frame, yuvj420p(pc, bt470bg/unknown/unknown, center), 1280x720 [SAR 1:1 DAR 16:9], 90k tbr, 90k tbn, 90k tbc (attached pic)
Input #1, png_pipe, from '/var/www/html/project/static/images/templates/logo.png':
  Duration: N/A, bitrate: N/A
    Stream #1:0: Video: png, 1 reference frame, rgba(pc), 1920x1080 [SAR 2835:2835 DAR 16:9], 25 tbr, 25 tbn, 25 tbc
[Parsed_scale_0 @ 0x555f8ed876c0] w:1920 h:1080 flags:'bilinear' interl:0
[Parsed_scale_2 @ 0x555f8ed89c40] w:1920 h:1080 flags:'bilinear' interl:0
Stream mapping:
  Stream #0:0 (h264) -> scale
  Stream #1:0 (png) -> scale
  overlay -> Stream #0:0 (libx264)
Press [q] to stop, [?] for help
[h264 @ 0x555f8eda0b80] Reinit context to 3840x2160, pix_fmt: yuvj420p
[Parsed_scale_0 @ 0x555f91f32d40] w:1920 h:1080 flags:'bilinear' interl:0
[Parsed_scale_2 @ 0x555f91f33300] w:1920 h:1080 flags:'bilinear' interl:0
[graph 0 input from stream 0:0 @ 0x555f91f36240] w:3840 h:2160 pixfmt:yuvj420p tb:1/30000 fr:30000/1001 sar:0/1 sws_param:flags=2
[graph 0 input from stream 1:0 @ 0x555f91f36a00] w:1920 h:1080 pixfmt:rgba tb:1/25 fr:25/1 sar:2835/2835 sws_param:flags=2
[swscaler @ 0x555f91f3b7c0] deprecated pixel format used, make sure you did set range correctly
[Parsed_scale_0 @ 0x555f91f32d40] w:3840 h:2160 fmt:yuvj420p sar:0/1 -> w:1920 h:1080 fmt:yuvj420p sar:0/1 flags:0x2
[Parsed_setsar_1 @ 0x555f91f2d100] w:1920 h:1080 sar:0/1 dar:16/9 -> sar:1/1 dar:16/9
[Parsed_scale_2 @ 0x555f91f33300] w:1920 h:1080 fmt:rgba sar:2835/2835 -> w:1920 h:1080 fmt:yuva420p sar:1/1 flags:0x2
[Parsed_setsar_3 @ 0x555f91f35380] w:1920 h:1080 sar:1/1 dar:16/9 -> sar:1/1 dar:16/9
[Parsed_overlay_4 @ 0x555f91f358c0] main w:1920 h:1080 fmt:yuvj420p overlay w:1920 h:1080 fmt:yuva420p
[Parsed_overlay_4 @ 0x555f91f358c0] [framesync @ 0x555f91f35a28] Selected 1/30000 time base
[Parsed_overlay_4 @ 0x555f91f358c0] [framesync @ 0x555f91f35a28] Sync level 2
[libx264 @ 0x555f8edb0f40] using SAR=1/1
[libx264 @ 0x555f8edb0f40] using cpu capabilities: MMX2 SSE2Fast SSSE3 SSE4.2 AVX FMA3 BMI2 AVX2
[libx264 @ 0x555f8edb0f40] profile High, level 4.0
[libx264 @ 0x555f8edb0f40] 264 - core 155 r2917 0a84d98 - H.264/MPEG-4 AVC codec - Copyleft 2003-2018 - http://www.videolan.org/x264.html - options: cabac=1 ref=1 deblock=1:0:0 analyse=0x3:0x113 me=hex subme=2 psy=1 psy_rd=1.00:0.00 mixed_ref=0 me_range=16 chroma_me=1 trellis=0 8x8dct=1 cqm=0 deadzone=21,11 fast_pskip=1 chroma_qp_offset=0 threads=24 lookahead_threads=8 sliced_threads=0 nr=0 decimate=1 interlaced=0 bluray_compat=0 constrained_intra=0 bframes=3 b_pyramid=2 b_adapt=1 b_bias=0 direct=1 weightb=1 open_gop=0 weightp=1 keyint=250 keyint_min=25 scenecut=40 intra_refresh=0 rc_lookahead=10 rc=crf mbtree=1 crf=18.0 qcomp=0.60 qpmin=0 qpmax=69 qpstep=4 ip_ratio=1.40 aq=1:1.00
Output #0, mp4, to '/var/www/html/project/media/video/watermarks/temp_video_for_share.mp4':
  Metadata:
    major_brand     : qt  
    minor_version   : 0
    compatible_brands: qt  
    encoder         : Lavf58.29.100
    Stream #0:0: Video: h264 (libx264), 1 reference frame (avc1 / 0x31637661), yuvj420p(pc), 1920x1080 [SAR 1:1 DAR 16:9], q=-1--1, 29.97 fps, 30k tbn, 29.97 tbc (default)
    Metadata:
      encoder         : Lavc58.54.100 libx264
    Side data:
      cpb: bitrate max/min/avg: 0/0/0 buffer size: 0 vbv_delay: -1
